<svg width="84" height="91" viewBox="0 0 84 91" fill="none" xmlns="http://www.w3.org/2000/svg">
<rect width="40" height="40" fill="#00A800"/>
<path d="M13.104 7.8H15.768V30.696H29.88V33H13.104V7.8Z" fill="white"/>
<path d="M13.104 7.8V6.8H12.104V7.8H13.104ZM15.768 7.8H16.768V6.8H15.768V7.8ZM15.768 30.696H14.768V31.696H15.768V30.696ZM29.88 30.696H30.88V29.696H29.88V30.696ZM29.88 33V34H30.88V33H29.88ZM13.104 33H12.104V34H13.104V33ZM13.104 8.8H15.768V6.8H13.104V8.8ZM14.768 7.8V30.696H16.768V7.8H14.768ZM15.768 31.696H29.88V29.696H15.768V31.696ZM28.88 30.696V33H30.88V30.696H28.88ZM29.88 32H13.104V34H29.88V32ZM14.104 33V7.8H12.104V33H14.104Z" fill="#AB0B0B"/>
<rect y="44" width="40" height="40" fill="#58D854"/>
<rect x="44" y="7" width="40" height="40" fill="#58D854"/>
<rect x="44" y="51" width="40" height="40" fill="#00A800"/>
<path d="M63 17.104H54.144V14.8H74.52V17.104H65.664V40H63V17.104Z" fill="white"/>
<path d="M63 17.104H64V16.104H63V17.104ZM54.144 17.104H53.144V18.104H54.144V17.104ZM54.144 14.8V13.8H53.144V14.8H54.144ZM74.52 14.8H75.52V13.8H74.52V14.8ZM74.52 17.104V18.104H75.52V17.104H74.52ZM65.664 17.104V16.104H64.664V17.104H65.664ZM65.664 40V41H66.664V40H65.664ZM63 40H62V41H63V40ZM63 16.104H54.144V18.104H63V16.104ZM55.144 17.104V14.8H53.144V17.104H55.144ZM54.144 15.8H74.52V13.8H54.144V15.8ZM73.52 14.8V17.104H75.52V14.8H73.52ZM74.52 16.104H65.664V18.104H74.52V16.104ZM64.664 17.104V40H66.664V17.104H64.664ZM65.664 39H63V41H65.664V39ZM64 40V17.104H62V40H64Z" fill="#AB0B0B"/>
<path d="M9.104 51.8H19.364C22.028 51.8 24.38 52.34 26.42 53.42C28.46 54.476 30.044 55.964 31.172 57.884C32.3 59.78 32.864 61.952 32.864 64.4C32.864 66.848 32.3 69.032 31.172 70.952C30.044 72.848 28.46 74.336 26.42 75.416C24.38 76.472 22.028 77 19.364 77H9.104V51.8ZM19.22 74.696C21.428 74.696 23.36 74.264 25.016 73.4C26.672 72.512 27.956 71.3 28.868 69.764C29.78 68.204 30.236 66.416 30.236 64.4C30.236 62.384 29.78 60.608 28.868 59.072C27.956 57.512 26.672 56.3 25.016 55.436C23.36 54.548 21.428 54.104 19.22 54.104H11.768V74.696H19.22Z" fill="white"/>
<path d="M9.104 51.8V50.8H8.104V51.8H9.104ZM26.42 53.42L25.9521 54.3038L25.9603 54.3081L26.42 53.42ZM31.172 57.884L30.3098 58.3906L30.3126 58.3953L31.172 57.884ZM31.172 70.952L32.0314 71.4633L32.0342 71.4585L31.172 70.952ZM26.42 75.416L26.8797 76.3041L26.8879 76.2998L26.42 75.416ZM9.104 77H8.104V78H9.104V77ZM25.016 73.4L25.4786 74.2866L25.4886 74.2813L25.016 73.4ZM28.868 69.764L29.7279 70.2746L29.7313 70.2687L28.868 69.764ZM28.868 59.072L28.0047 59.5767L28.0081 59.5825L28.868 59.072ZM25.016 55.436L24.5434 56.3173L24.5534 56.3226L25.016 55.436ZM11.768 54.104V53.104H10.768V54.104H11.768ZM11.768 74.696H10.768V75.696H11.768V74.696ZM9.104 52.8H19.364V50.8H9.104V52.8ZM19.364 52.8C21.8902 52.8 24.0771 53.3111 25.9521 54.3038L26.8879 52.5362C24.6829 51.3689 22.1658 50.8 19.364 50.8V52.8ZM25.9603 54.3081C27.8384 55.2803 29.2804 56.6385 30.3098 58.3905L32.0342 57.3774C30.8076 55.2895 29.0816 53.6717 26.8797 52.5319L25.9603 54.3081ZM30.3126 58.3953C31.3387 60.1201 31.864 62.1117 31.864 64.4H33.864C33.864 61.7923 33.2613 59.4399 32.0314 57.3727L30.3126 58.3953ZM31.864 64.4C31.864 66.6881 31.3388 68.694 30.3098 70.4454L32.0342 71.4585C33.2612 69.37 33.864 67.0079 33.864 64.4H31.864ZM30.3126 70.4407C29.2829 72.1715 27.8377 73.5339 25.9521 74.5322L26.8879 76.2998C29.0823 75.1381 30.8051 73.5245 32.0314 71.4633L30.3126 70.4407ZM25.9603 74.5279C24.0835 75.4994 21.8936 76 19.364 76V78C22.1624 78 24.6765 77.4446 26.8797 76.3041L25.9603 74.5279ZM19.364 76H9.104V78H19.364V76ZM10.104 77V51.8H8.104V77H10.104ZM19.22 75.696C21.5598 75.696 23.6559 75.2375 25.4786 74.2866L24.5534 72.5134C23.0641 73.2905 21.2962 73.696 19.22 73.696V75.696ZM25.4886 74.2813C27.2963 73.3119 28.718 71.9753 29.7279 70.2745L28.0081 69.2535C27.194 70.6247 26.0477 71.7121 24.5434 72.5187L25.4886 74.2813ZM29.7313 70.2687C30.7429 68.5384 31.236 66.5724 31.236 64.4H29.236C29.236 66.2596 28.8171 67.8696 28.0047 69.2593L29.7313 70.2687ZM31.236 64.4C31.236 62.2279 30.7429 60.2711 29.7279 58.5615L28.0081 59.5825C28.8171 60.9449 29.236 62.5401 29.236 64.4H31.236ZM29.7313 58.5673C28.721 56.8392 27.2955 55.4974 25.4786 54.5494L24.5534 56.3226C26.0485 57.1026 27.191 58.1848 28.0047 59.5767L29.7313 58.5673ZM25.4886 54.5547C23.6637 53.5762 21.564 53.104 19.22 53.104V55.104C21.292 55.104 23.0563 55.5198 24.5434 56.3173L25.4886 54.5547ZM19.22 53.104H11.768V55.104H19.22V53.104ZM10.768 54.104V74.696H12.768V54.104H10.768ZM11.768 75.696H19.22V73.696H11.768V75.696Z" fill="#AB0B0B"/>
<path d="M66.048 84.216C63.552 84.216 61.296 83.664 59.28 82.56C57.288 81.456 55.716 79.932 54.564 77.988C53.436 76.02 52.872 73.824 52.872 71.4C52.872 68.976 53.436 66.792 54.564 64.848C55.716 62.88 57.3 61.344 59.316 60.24C61.332 59.136 63.588 58.584 66.084 58.584C67.956 58.584 69.684 58.896 71.268 59.52C72.852 60.144 74.196 61.056 75.3 62.256L73.608 63.948C71.64 61.956 69.156 60.96 66.156 60.96C64.164 60.96 62.352 61.416 60.72 62.328C59.088 63.24 57.804 64.488 56.868 66.072C55.956 67.656 55.5 69.432 55.5 71.4C55.5 73.368 55.956 75.144 56.868 76.728C57.804 78.312 59.088 79.56 60.72 80.472C62.352 81.384 64.164 81.84 66.156 81.84C69.18 81.84 71.664 80.832 73.608 78.816L75.3 80.508C74.196 81.708 72.84 82.632 71.232 83.28C69.648 83.904 67.92 84.216 66.048 84.216Z" fill="white"/>
<path d="M59.28 82.56L58.7952 83.4347L58.7997 83.4371L59.28 82.56ZM54.564 77.988L53.6964 78.4853L53.7 78.4916L53.7037 78.4978L54.564 77.988ZM54.564 64.848L53.701 64.3428L53.6991 64.3461L54.564 64.848ZM59.316 60.24L58.8357 59.3629L59.316 60.24ZM71.268 59.52L70.9015 60.4504L71.268 59.52ZM75.3 62.256L76.0071 62.9631L76.6854 62.2848L76.0359 61.5789L75.3 62.256ZM73.608 63.948L72.8966 64.6508L73.6037 65.3665L74.3151 64.6551L73.608 63.948ZM60.72 62.328L60.2322 61.4551H60.2322L60.72 62.328ZM56.868 66.072L56.007 65.5632L56.0014 65.573L56.868 66.072ZM56.868 76.728L56.0013 77.227L56.0071 77.2367L56.868 76.728ZM60.72 80.472L60.2322 81.3449L60.72 80.472ZM73.608 78.816L74.3151 78.1089L73.595 77.3888L72.8882 78.1219L73.608 78.816ZM75.3 80.508L76.0359 81.1851L76.6854 80.4792L76.0071 79.8009L75.3 80.508ZM71.232 83.28L71.5985 84.2104L71.6058 84.2075L71.232 83.28ZM66.048 83.216C63.7051 83.216 61.6166 82.6994 59.7603 81.6829L58.7997 83.4371C60.9754 84.6286 63.3989 85.216 66.048 85.216V83.216ZM59.7647 81.6853C57.9268 80.6667 56.485 79.2681 55.4243 77.4782L53.7037 78.4978C54.947 80.5959 56.6492 82.2453 58.7953 83.4347L59.7647 81.6853ZM55.4316 77.4907C54.3963 75.6845 53.872 73.6619 53.872 71.4H51.872C51.872 73.9861 52.4757 76.3555 53.6964 78.4853L55.4316 77.4907ZM53.872 71.4C53.872 69.138 54.3963 67.1295 55.4289 65.3499L53.6991 64.3461C52.4757 66.4545 51.872 68.814 51.872 71.4H53.872ZM55.427 65.3532C56.4867 63.5428 57.9379 62.1348 59.7963 61.1171L58.8357 59.3629C56.6621 60.5532 54.9453 62.2172 53.701 64.3428L55.427 65.3532ZM59.7963 61.1171C61.6526 60.1006 63.7411 59.584 66.084 59.584V57.584C63.4349 57.584 61.0114 58.1714 58.8357 59.3629L59.7963 61.1171ZM66.084 59.584C67.8431 59.584 69.4453 59.8768 70.9015 60.4504L71.6345 58.5896C69.9227 57.9152 68.0689 57.584 66.084 57.584V59.584ZM70.9015 60.4504C72.3511 61.0215 73.567 61.8493 74.5641 62.9331L76.0359 61.5789C74.825 60.2627 73.3529 59.2665 71.6345 58.5896L70.9015 60.4504ZM74.5929 61.5489L72.9009 63.2409L74.3151 64.6551L76.0071 62.9631L74.5929 61.5489ZM74.3194 63.2452C72.1491 61.0485 69.4022 59.96 66.156 59.96V61.96C68.9098 61.96 71.1309 62.8635 72.8966 64.6508L74.3194 63.2452ZM66.156 59.96C64.0048 59.96 62.023 60.4543 60.2322 61.4551L61.2078 63.2009C62.681 62.3777 64.3232 61.96 66.156 61.96V59.96ZM60.2322 61.4551C58.4484 62.4519 57.0346 63.8245 56.0071 65.5633L57.7289 66.5807C58.5734 65.1515 59.7276 64.0281 61.2078 63.2009L60.2322 61.4551ZM56.0014 65.573C54.9953 67.3204 54.5 69.2707 54.5 71.4H56.5C56.5 69.5933 56.9167 67.9916 57.7346 66.571L56.0014 65.573ZM54.5 71.4C54.5 73.5293 54.9953 75.4796 56.0014 77.227L57.7346 76.229C56.9167 74.8084 56.5 73.2067 56.5 71.4H54.5ZM56.0071 77.2367C57.0346 78.9755 58.4484 80.3481 60.2322 81.3449L61.2078 79.5991C59.7276 78.7719 58.5734 77.6485 57.7289 76.2193L56.0071 77.2367ZM60.2322 81.3449C62.023 82.3457 64.0048 82.84 66.156 82.84V80.84C64.3232 80.84 62.681 80.4223 61.2078 79.5991L60.2322 81.3449ZM66.156 82.84C69.4275 82.84 72.1793 81.7383 74.3278 79.5101L72.8882 78.1219C71.1487 79.9257 68.9325 80.84 66.156 80.84V82.84ZM72.9009 79.5231L74.5929 81.2151L76.0071 79.8009L74.3151 78.1089L72.9009 79.5231ZM74.5641 79.8309C73.567 80.9147 72.3373 81.7564 70.8582 82.3525L71.6058 84.2075C73.3427 83.5076 74.825 82.5013 76.0359 81.1851L74.5641 79.8309ZM70.8655 82.3496C69.4093 82.9232 67.8071 83.216 66.048 83.216V85.216C68.0329 85.216 69.8867 84.8848 71.5985 84.2104L70.8655 82.3496Z" fill="#AB0B0B"/>
<rect width="40" height="40" fill="#00A800"/>
<path d="M13.104 7.8H15.768V30.696H29.88V33H13.104V7.8Z" fill="white"/>
<path d="M13.104 7.8V6.8H12.104V7.8H13.104ZM15.768 7.8H16.768V6.8H15.768V7.8ZM15.768 30.696H14.768V31.696H15.768V30.696ZM29.88 30.696H30.88V29.696H29.88V30.696ZM29.88 33V34H30.88V33H29.88ZM13.104 33H12.104V34H13.104V33ZM13.104 8.8H15.768V6.8H13.104V8.8ZM14.768 7.8V30.696H16.768V7.8H14.768ZM15.768 31.696H29.88V29.696H15.768V31.696ZM28.88 30.696V33H30.88V30.696H28.88ZM29.88 32H13.104V34H29.88V32ZM14.104 33V7.8H12.104V33H14.104Z" fill="white"/>
<rect y="44" width="40" height="40" fill="#58D854"/>
<rect x="44" y="7" width="40" height="40" fill="#58D854"/>
<rect x="44" y="51" width="40" height="40" fill="#00A800"/>
<path d="M63 17.104H54.144V14.8H74.52V17.104H65.664V40H63V17.104Z" fill="white"/>
<path d="M63 17.104H64V16.104H63V17.104ZM54.144 17.104H53.144V18.104H54.144V17.104ZM54.144 14.8V13.8H53.144V14.8H54.144ZM74.52 14.8H75.52V13.8H74.52V14.8ZM74.52 17.104V18.104H75.52V17.104H74.52ZM65.664 17.104V16.104H64.664V17.104H65.664ZM65.664 40V41H66.664V40H65.664ZM63 40H62V41H63V40ZM63 16.104H54.144V18.104H63V16.104ZM55.144 17.104V14.8H53.144V17.104H55.144ZM54.144 15.8H74.52V13.8H54.144V15.8ZM73.52 14.8V17.104H75.52V14.8H73.52ZM74.52 16.104H65.664V18.104H74.52V16.104ZM64.664 17.104V40H66.664V17.104H64.664ZM65.664 39H63V41H65.664V39ZM64 40V17.104H62V40H64Z" fill="white"/>
<path d="M9.104 51.8H19.364C22.028 51.8 24.38 52.34 26.42 53.42C28.46 54.476 30.044 55.964 31.172 57.884C32.3 59.78 32.864 61.952 32.864 64.4C32.864 66.848 32.3 69.032 31.172 70.952C30.044 72.848 28.46 74.336 26.42 75.416C24.38 76.472 22.028 77 19.364 77H9.104V51.8ZM19.22 74.696C21.428 74.696 23.36 74.264 25.016 73.4C26.672 72.512 27.956 71.3 28.868 69.764C29.78 68.204 30.236 66.416 30.236 64.4C30.236 62.384 29.78 60.608 28.868 59.072C27.956 57.512 26.672 56.3 25.016 55.436C23.36 54.548 21.428 54.104 19.22 54.104H11.768V74.696H19.22Z" fill="white"/>
<path d="M9.104 51.8V50.8H8.104V51.8H9.104ZM26.42 53.42L25.9521 54.3038L25.9603 54.3081L26.42 53.42ZM31.172 57.884L30.3098 58.3906L30.3126 58.3953L31.172 57.884ZM31.172 70.952L32.0314 71.4633L32.0342 71.4585L31.172 70.952ZM26.42 75.416L26.8797 76.3041L26.8879 76.2998L26.42 75.416ZM9.104 77H8.104V78H9.104V77ZM25.016 73.4L25.4786 74.2866L25.4886 74.2813L25.016 73.4ZM28.868 69.764L29.7279 70.2746L29.7313 70.2687L28.868 69.764ZM28.868 59.072L28.0047 59.5767L28.0081 59.5825L28.868 59.072ZM25.016 55.436L24.5434 56.3173L24.5534 56.3226L25.016 55.436ZM11.768 54.104V53.104H10.768V54.104H11.768ZM11.768 74.696H10.768V75.696H11.768V74.696ZM9.104 52.8H19.364V50.8H9.104V52.8ZM19.364 52.8C21.8902 52.8 24.0771 53.3111 25.9521 54.3038L26.8879 52.5362C24.6829 51.3689 22.1658 50.8 19.364 50.8V52.8ZM25.9603 54.3081C27.8384 55.2803 29.2804 56.6385 30.3098 58.3905L32.0342 57.3774C30.8076 55.2895 29.0816 53.6717 26.8797 52.5319L25.9603 54.3081ZM30.3126 58.3953C31.3387 60.1201 31.864 62.1117 31.864 64.4H33.864C33.864 61.7923 33.2613 59.4399 32.0314 57.3727L30.3126 58.3953ZM31.864 64.4C31.864 66.6881 31.3388 68.694 30.3098 70.4454L32.0342 71.4585C33.2612 69.37 33.864 67.0079 33.864 64.4H31.864ZM30.3126 70.4407C29.2829 72.1715 27.8377 73.5339 25.9521 74.5322L26.8879 76.2998C29.0823 75.1381 30.8051 73.5245 32.0314 71.4633L30.3126 70.4407ZM25.9603 74.5279C24.0835 75.4994 21.8936 76 19.364 76V78C22.1624 78 24.6765 77.4446 26.8797 76.3041L25.9603 74.5279ZM19.364 76H9.104V78H19.364V76ZM10.104 77V51.8H8.104V77H10.104ZM19.22 75.696C21.5598 75.696 23.6559 75.2375 25.4786 74.2866L24.5534 72.5134C23.0641 73.2905 21.2962 73.696 19.22 73.696V75.696ZM25.4886 74.2813C27.2963 73.3119 28.718 71.9753 29.7279 70.2745L28.0081 69.2535C27.194 70.6247 26.0477 71.7121 24.5434 72.5187L25.4886 74.2813ZM29.7313 70.2687C30.7429 68.5384 31.236 66.5724 31.236 64.4H29.236C29.236 66.2596 28.8171 67.8696 28.0047 69.2593L29.7313 70.2687ZM31.236 64.4C31.236 62.2279 30.7429 60.2711 29.7279 58.5615L28.0081 59.5825C28.8171 60.9449 29.236 62.5401 29.236 64.4H31.236ZM29.7313 58.5673C28.721 56.8392 27.2955 55.4974 25.4786 54.5494L24.5534 56.3226C26.0485 57.1026 27.191 58.1848 28.0047 59.5767L29.7313 58.5673ZM25.4886 54.5547C23.6637 53.5762 21.564 53.104 19.22 53.104V55.104C21.292 55.104 23.0563 55.5198 24.5434 56.3173L25.4886 54.5547ZM19.22 53.104H11.768V55.104H19.22V53.104ZM10.768 54.104V74.696H12.768V54.104H10.768ZM11.768 75.696H19.22V73.696H11.768V75.696Z" fill="white"/>
<path d="M66.048 84.216C63.552 84.216 61.296 83.664 59.28 82.56C57.288 81.456 55.716 79.932 54.564 77.988C53.436 76.02 52.872 73.824 52.872 71.4C52.872 68.976 53.436 66.792 54.564 64.848C55.716 62.88 57.3 61.344 59.316 60.24C61.332 59.136 63.588 58.584 66.084 58.584C67.956 58.584 69.684 58.896 71.268 59.52C72.852 60.144 74.196 61.056 75.3 62.256L73.608 63.948C71.64 61.956 69.156 60.96 66.156 60.96C64.164 60.96 62.352 61.416 60.72 62.328C59.088 63.24 57.804 64.488 56.868 66.072C55.956 67.656 55.5 69.432 55.5 71.4C55.5 73.368 55.956 75.144 56.868 76.728C57.804 78.312 59.088 79.56 60.72 80.472C62.352 81.384 64.164 81.84 66.156 81.84C69.18 81.84 71.664 80.832 73.608 78.816L75.3 80.508C74.196 81.708 72.84 82.632 71.232 83.28C69.648 83.904 67.92 84.216 66.048 84.216Z" fill="white"/>
<path d="M59.28 82.56L58.7952 83.4347L58.7997 83.4371L59.28 82.56ZM54.564 77.988L53.6964 78.4853L53.7 78.4916L53.7037 78.4978L54.564 77.988ZM54.564 64.848L53.701 64.3428L53.6991 64.3461L54.564 64.848ZM59.316 60.24L58.8357 59.3629L59.316 60.24ZM71.268 59.52L70.9015 60.4504L71.268 59.52ZM75.3 62.256L76.0071 62.9631L76.6854 62.2848L76.0359 61.5789L75.3 62.256ZM73.608 63.948L72.8966 64.6508L73.6037 65.3665L74.3151 64.6551L73.608 63.948ZM60.72 62.328L60.2322 61.4551H60.2322L60.72 62.328ZM56.868 66.072L56.007 65.5632L56.0014 65.573L56.868 66.072ZM56.868 76.728L56.0013 77.227L56.0071 77.2367L56.868 76.728ZM60.72 80.472L60.2322 81.3449L60.72 80.472ZM73.608 78.816L74.3151 78.1089L73.595 77.3888L72.8882 78.1219L73.608 78.816ZM75.3 80.508L76.0359 81.1851L76.6854 80.4792L76.0071 79.8009L75.3 80.508ZM71.232 83.28L71.5985 84.2104L71.6058 84.2075L71.232 83.28ZM66.048 83.216C63.7051 83.216 61.6166 82.6994 59.7603 81.6829L58.7997 83.4371C60.9754 84.6286 63.3989 85.216 66.048 85.216V83.216ZM59.7647 81.6853C57.9268 80.6667 56.485 79.2681 55.4243 77.4782L53.7037 78.4978C54.947 80.5959 56.6492 82.2453 58.7953 83.4347L59.7647 81.6853ZM55.4316 77.4907C54.3963 75.6845 53.872 73.6619 53.872 71.4H51.872C51.872 73.9861 52.4757 76.3555 53.6964 78.4853L55.4316 77.4907ZM53.872 71.4C53.872 69.138 54.3963 67.1295 55.4289 65.3499L53.6991 64.3461C52.4757 66.4545 51.872 68.814 51.872 71.4H53.872ZM55.427 65.3532C56.4867 63.5428 57.9379 62.1348 59.7963 61.1171L58.8357 59.3629C56.6621 60.5532 54.9453 62.2172 53.701 64.3428L55.427 65.3532ZM59.7963 61.1171C61.6526 60.1006 63.7411 59.584 66.084 59.584V57.584C63.4349 57.584 61.0114 58.1714 58.8357 59.3629L59.7963 61.1171ZM66.084 59.584C67.8431 59.584 69.4453 59.8768 70.9015 60.4504L71.6345 58.5896C69.9227 57.9152 68.0689 57.584 66.084 57.584V59.584ZM70.9015 60.4504C72.3511 61.0215 73.567 61.8493 74.5641 62.9331L76.0359 61.5789C74.825 60.2627 73.3529 59.2665 71.6345 58.5896L70.9015 60.4504ZM74.5929 61.5489L72.9009 63.2409L74.3151 64.6551L76.0071 62.9631L74.5929 61.5489ZM74.3194 63.2452C72.1491 61.0485 69.4022 59.96 66.156 59.96V61.96C68.9098 61.96 71.1309 62.8635 72.8966 64.6508L74.3194 63.2452ZM66.156 59.96C64.0048 59.96 62.023 60.4543 60.2322 61.4551L61.2078 63.2009C62.681 62.3777 64.3232 61.96 66.156 61.96V59.96ZM60.2322 61.4551C58.4484 62.4519 57.0346 63.8245 56.0071 65.5633L57.7289 66.5807C58.5734 65.1515 59.7276 64.0281 61.2078 63.2009L60.2322 61.4551ZM56.0014 65.573C54.9953 67.3204 54.5 69.2707 54.5 71.4H56.5C56.5 69.5933 56.9167 67.9916 57.7346 66.571L56.0014 65.573ZM54.5 71.4C54.5 73.5293 54.9953 75.4796 56.0014 77.227L57.7346 76.229C56.9167 74.8084 56.5 73.2067 56.5 71.4H54.5ZM56.0071 77.2367C57.0346 78.9755 58.4484 80.3481 60.2322 81.3449L61.2078 79.5991C59.7276 78.7719 58.5734 77.6485 57.7289 76.2193L56.0071 77.2367ZM60.2322 81.3449C62.023 82.3457 64.0048 82.84 66.156 82.84V80.84C64.3232 80.84 62.681 80.4223 61.2078 79.5991L60.2322 81.3449ZM66.156 82.84C69.4275 82.84 72.1793 81.7383 74.3278 79.5101L72.8882 78.1219C71.1487 79.9257 68.9325 80.84 66.156 80.84V82.84ZM72.9009 79.5231L74.5929 81.2151L76.0071 79.8009L74.3151 78.1089L72.9009 79.5231ZM74.5641 79.8309C73.567 80.9147 72.3373 81.7564 70.8582 82.3525L71.6058 84.2075C73.3427 83.5076 74.825 82.5013 76.0359 81.1851L74.5641 79.8309ZM70.8655 82.3496C69.4093 82.9232 67.8071 83.216 66.048 83.216V85.216C68.0329 85.216 69.8867 84.8848 71.5985 84.2104L70.8655 82.3496Z" fill="white"/>
</svg>
